<?xml version="1.0" encoding="UTF-8" standalone="no"?>
<!-- Creator: CorelDRAW 2017 -->

<svg
   xml:space="preserve"
   width="782px"
   height="263px"
   version="1.1"
   shape-rendering="geometricPrecision"
   text-rendering="geometricPrecision"
   image-rendering="optimizeQuality"
   fill-rule="evenodd"
   clip-rule="evenodd"
   viewBox="0 0 624.36 209.9"
   id="svg4"
   sodipodi:docname="backend-login-logo.svg"
   inkscape:version="1.4 (e7c3feb100, 2024-10-09)"
   xmlns:inkscape="http://www.inkscape.org/namespaces/inkscape"
   xmlns:sodipodi="http://sodipodi.sourceforge.net/DTD/sodipodi-0.dtd"
   xmlns="http://www.w3.org/2000/svg"
   xmlns:svg="http://www.w3.org/2000/svg"><defs
   id="defs4" /><sodipodi:namedview
   id="namedview4"
   pagecolor="#ffffff"
   bordercolor="#000000"
   borderopacity="0.25"
   inkscape:showpageshadow="2"
   inkscape:pageopacity="0.0"
   inkscape:pagecheckerboard="0"
   inkscape:deskcolor="#d1d1d1"
   inkscape:zoom="1.1643223"
   inkscape:cx="480.9665"
   inkscape:cy="130.97748"
   inkscape:window-width="1920"
   inkscape:window-height="1052"
   inkscape:window-x="0"
   inkscape:window-y="0"
   inkscape:window-maximized="1"
   inkscape:current-layer="Layer_x0020_1" />
 <g
   id="Layer_x0020_1"
   inkscape:label="Layer 1">
  <metadata
   id="CorelCorpID_0Corel-Layer" />
  <g
   id="g1"
   style="fill:none;stroke-width:3.55454;stroke-dasharray:none"
   transform="translate(-1.7772703)">
   <path
   fill="black"
   d="M 289.82,44.24 V 145.8 H 275.66 V 44.24 H 250.59 V 31.88 h 64.29 v 12.36 z m 75.96,48.66 v 52.9 H 351.12 V 92.9 L 322,31.88 h 15.61 l 21.47,46.04 21.49,-46.04 h 14.82 z m 73.55,9.93 H 425.66 V 145.8 H 411.49 V 31.88 c 0,0 14.01,-1.15 27.52,-1.15 24.73,0 31.9,15.3 31.9,35.32 0,24.73 -8.48,36.78 -31.58,36.78 z m 1.62,-60.38 c -8.94,0 -15.29,0.98 -15.29,0.98 v 47.51 h 15.29 c 9.12,0 15.47,-6.02 15.47,-23.76 0,-16.28 -3.92,-24.73 -15.47,-24.73 z m 81.06,104.48 C 495.16,146.93 488,127.4 488,87.54 c 0,-38.25 7.17,-56.81 34.01,-56.81 26.84,0 34,18.56 34,56.81 0,39.86 -7.16,59.39 -34,59.39 z m 0,-104.32 c -14.64,0 -19.53,9.93 -19.53,45.74 0,34.98 4.89,46.71 19.53,46.71 14.63,0 19.52,-11.73 19.52,-46.71 0.01,-35.81 -4.89,-45.74 -19.52,-45.74 z m 74.86,104.32 c -7.97,0 -19.84,-2.43 -21.33,-2.78 v -11.86 c 3.92,0.81 14,2.48 21.17,2.48 8.28,0 13.67,-7.03 13.67,-19.58 0,-14.79 -2.43,-22.61 -13.99,-22.61 H 583.04 V 80.69 h 11.71 c 13.2,0 13.83,-13.51 13.83,-20.01 0,-12.86 -4.06,-18.07 -12.19,-18.07 -7.16,0 -15.31,1.79 -20.02,2.77 V 33.5 c 1.78,-0.33 11.4,-2.77 19.69,-2.77 16.75,0 26.37,7.16 26.37,31.42 0,11.07 -3.92,20.82 -12.55,23.93 9.93,0.65 14.48,11.55 14.48,27.49 0,24.26 -9.43,33.36 -27.49,33.36 z"
   id="path1"
   style="fill:none;stroke:#ff8700;stroke-width:3.55454;stroke-dasharray:none;stroke-opacity:1" />
  </g>
  <g
   id="g3">
   <path
   fill="#FF8700"
   d="M156.78 144.65c-3.11,0.91 -5.59,1.26 -8.84,1.26 -26.66,0 -65.81,-93.16 -65.81,-124.17 0,-11.41 2.7,-15.22 6.52,-18.49 -32.63,3.81 -71.78,15.78 -84.3,31.01 -2.7,3.81 -4.35,9.79 -4.35,17.4 0,48.4 51.66,158.24 88.11,158.24 16.86,0 45.29,-27.72 68.67,-65.25z"
   id="path2" />
   <path
   fill="#FF8700"
   d="M139.76 0c33.72,0 67.46,5.44 67.46,24.47 0,38.61 -24.49,85.4 -36.99,85.4 -22.3,0 -50.04,-62.01 -50.04,-93.02 0.01,-14.14 5.44,-16.85 19.57,-16.85z"
   id="path3" />
  </g>
  
  
  
  
  
  
  
  
  
  <g
   id="g4"
   style="stroke-width:2.43676051;stroke-dasharray:none"><path
     fill="#2B2A29"
     fill-rule="nonzero"
     d="m 180.57,177.26 h 2.55 l 0.6,2.19 c 0.85,-0.61 1.93,-1.18 3.23,-1.7 1.3,-0.51 2.55,-0.77 3.75,-0.77 2.61,0 4.53,1.02 5.77,3.07 1.23,2.05 1.85,4.65 1.85,7.82 0,3.64 -0.62,6.38 -1.85,8.22 -1.24,1.83 -3.16,2.75 -5.77,2.75 -1.14,0 -2.32,-0.19 -3.53,-0.56 -1.21,-0.37 -2.36,-0.86 -3.45,-1.47 v 11.21 h -3.15 z m 9.25,18.91 c 3.57,0 5.35,-2.77 5.35,-8.3 0,-2.79 -0.51,-4.87 -1.52,-6.23 -1.01,-1.35 -2.28,-2.03 -3.83,-2.03 -1.11,0 -2.17,0.17 -3.15,0.5 -0.98,0.33 -1.97,0.76 -2.95,1.3 v 13.04 c 2.02,1.15 4.05,1.72 6.1,1.72 z"
     id="path4"
     style="fill:#ff8700;fill-opacity:1;stroke:#ff8700;stroke-opacity:1;stroke-width:2.43676051;stroke-dasharray:none" /><path
     id="1"
     fill="#2B2A29"
     fill-rule="nonzero"
     d="m 204.11,173.47 c -0.19,0 -0.34,-0.06 -0.46,-0.18 -0.12,-0.12 -0.18,-0.28 -0.18,-0.46 v -3.12 c 0,-0.42 0.21,-0.63 0.64,-0.63 h 2.23 c 0.4,0 0.6,0.21 0.6,0.63 v 3.12 c 0,0.42 -0.2,0.64 -0.6,0.64 z m -0.48,3.79 h 3.15 v 21.3 h -3.15 z"
     style="fill:#ff8700;fill-opacity:1;stroke:#ff8700;stroke-opacity:1;stroke-width:2.43676051;stroke-dasharray:none" /><polygon
     id="2"
     fill="#2B2A29"
     fill-rule="nonzero"
     points="211.57,179.85 211.57,177.26 227.81,177.26 227.81,179.65 215.48,195.97 227.81,195.97 227.81,198.56 211.85,198.56 211.85,196.17 224.14,179.85 "
     style="fill:#ff8700;fill-opacity:1;stroke:#ff8700;stroke-opacity:1;stroke-width:2.43676051;stroke-dasharray:none" /><path
     id="3"
     fill="#2B2A29"
     fill-rule="nonzero"
     d="m 232.55,177.26 h 2.56 l 0.6,2.19 c 0.85,-0.61 1.92,-1.18 3.23,-1.7 1.3,-0.51 2.55,-0.77 3.75,-0.77 2.61,0 4.53,1.02 5.76,3.07 1.24,2.05 1.86,4.65 1.86,7.82 0,3.64 -0.62,6.38 -1.86,8.22 -1.23,1.83 -3.15,2.75 -5.76,2.75 -1.15,0 -2.32,-0.19 -3.53,-0.56 -1.21,-0.37 -2.36,-0.86 -3.45,-1.47 v 11.21 h -3.16 z m 9.26,18.91 c 3.56,0 5.35,-2.77 5.35,-8.3 0,-2.79 -0.51,-4.87 -1.52,-6.23 -1.01,-1.35 -2.29,-2.03 -3.83,-2.03 -1.12,0 -2.17,0.17 -3.15,0.5 -0.99,0.33 -1.97,0.76 -2.95,1.3 v 13.04 c 2.02,1.15 4.05,1.72 6.1,1.72 z"
     style="fill:#ff8700;fill-opacity:1;stroke:#ff8700;stroke-opacity:1;stroke-width:2.43676051;stroke-dasharray:none" /><path
     id="4"
     fill="#2B2A29"
     fill-rule="nonzero"
     d="m 259.76,198.8 c -1.59,0 -2.89,-0.48 -3.89,-1.44 -0.99,-0.95 -1.49,-2.26 -1.49,-3.91 v -1.51 c 0,-1.73 0.56,-3.1 1.69,-4.11 1.13,-1.01 2.79,-1.52 4.97,-1.52 h 7.22 v -2.63 c 0,-1.44 -0.39,-2.5 -1.17,-3.19 -0.79,-0.69 -2.23,-1.04 -4.33,-1.04 h -6.63 v -1.88 c 2.5,-0.42 5.1,-0.63 7.78,-0.63 2.58,0 4.48,0.52 5.69,1.57 1.21,1.05 1.81,2.72 1.81,5.01 v 15.04 h -2.43 l -0.6,-2.43 c -0.18,0.16 -0.76,0.46 -1.73,0.91 -0.97,0.46 -2.08,0.86 -3.33,1.22 -1.26,0.36 -2.44,0.54 -3.56,0.54 z m 1.4,-2.35 c 0.72,0 1.6,-0.14 2.63,-0.4 1.04,-0.27 1.98,-0.55 2.82,-0.84 0.83,-0.29 1.39,-0.49 1.65,-0.6 v -6.7 l -6.5,0.28 c -1.46,0.05 -2.54,0.41 -3.21,1.07 -0.68,0.67 -1.02,1.57 -1.02,2.72 v 0.96 c 0,1.22 0.35,2.11 1.06,2.67 0.7,0.56 1.56,0.84 2.57,0.84 z"
     style="fill:#ff8700;fill-opacity:1;stroke:#ff8700;stroke-opacity:1;stroke-width:2.43676051;stroke-dasharray:none" /><path
     id="5"
     fill="#2B2A29"
     fill-rule="nonzero"
     d="m 282.94,198.6 c -1.88,0 -3.29,-0.52 -4.2,-1.56 -0.92,-1.03 -1.38,-2.8 -1.38,-5.3 v -23.62 h 3.15 v 23.22 c 0,1.75 0.24,2.95 0.72,3.59 0.48,0.64 1.24,1.02 2.27,1.16 l 2.16,0.24 v 2.27 z"
     style="fill:#ff8700;fill-opacity:1;stroke:#ff8700;stroke-opacity:1;stroke-width:2.43676051;stroke-dasharray:none" /><path
     id="6"
     fill="#2B2A29"
     fill-rule="nonzero"
     d="m 295.43,198.8 c -4.25,0 -6.38,-2.18 -6.38,-6.54 v -15 h 3.15 v 14.2 c 0,1.7 0.38,2.89 1.14,3.55 0.76,0.67 1.92,1 3.49,1 1.2,0 2.31,-0.17 3.35,-0.5 1.04,-0.33 2.13,-0.85 3.27,-1.54 v -16.71 h 3.15 v 21.3 h -2.47 l -0.68,-2.35 c -2.71,1.73 -5.38,2.59 -8.02,2.59 z"
     style="fill:#ff8700;fill-opacity:1;stroke:#ff8700;stroke-opacity:1;stroke-width:2.43676051;stroke-dasharray:none" /><path
     id="7"
     fill="#2B2A29"
     fill-rule="nonzero"
     d="m 320.69,198.8 c -2.29,0 -4.07,-0.33 -5.33,-1 -1.26,-0.66 -2.17,-1.78 -2.73,-3.35 -0.56,-1.57 -0.84,-3.76 -0.84,-6.58 0,-2.85 0.29,-5.05 0.86,-6.63 0.57,-1.56 1.5,-2.67 2.77,-3.31 1.28,-0.63 3.05,-0.95 5.31,-0.95 1.94,0 3.5,0.21 4.67,0.63 1.17,0.43 2.03,1.16 2.59,2.18 0.56,1.02 0.84,2.44 0.84,4.25 0,1.81 -0.53,3.12 -1.58,3.93 -1.05,0.81 -2.55,1.22 -4.49,1.22 h -7.82 c 0.03,1.83 0.22,3.25 0.56,4.24 0.35,1 0.99,1.73 1.92,2.2 0.93,0.46 2.27,0.7 4.03,0.7 h 6.86 v 1.91 c -1.44,0.19 -2.71,0.33 -3.83,0.42 -1.12,0.09 -2.38,0.14 -3.79,0.14 z m 1.79,-11.69 c 1.23,0 2.12,-0.23 2.68,-0.68 0.56,-0.45 0.84,-1.24 0.84,-2.35 0,-1.78 -0.4,-3.01 -1.18,-3.69 -0.79,-0.68 -2.15,-1.02 -4.09,-1.02 -1.54,0 -2.73,0.23 -3.55,0.68 -0.83,0.45 -1.41,1.22 -1.76,2.31 -0.34,1.09 -0.52,2.68 -0.52,4.75 z"
     style="fill:#ff8700;fill-opacity:1;stroke:#ff8700;stroke-opacity:1;stroke-width:2.43676051;stroke-dasharray:none" /></g>
  
  
  
  
  
  
  
  
  
  
  
  <g
   id="g5"
   style="stroke-width:0.99961473;stroke-dasharray:none;stroke:none"><path
     id="8"
     fill="#2B2A29"
     fill-rule="nonzero"
     d="m 355.16,198.8 c -2.45,0 -4.81,-0.8 -7.1,-2.39 l -0.6,2.15 h -2.55 v -30.44 h 3.15 v 11.09 c 1.12,-0.64 2.31,-1.17 3.57,-1.6 1.26,-0.42 2.4,-0.63 3.41,-0.63 2.61,0 4.53,0.85 5.77,2.55 1.23,1.7 1.85,4.55 1.85,8.54 0,7.15 -2.5,10.73 -7.5,10.73 z m -1,-2.63 c 1.76,0 3.09,-0.69 3.99,-2.06 0.91,-1.37 1.36,-3.42 1.36,-6.16 0,-2.24 -0.22,-3.96 -0.66,-5.17 -0.44,-1.21 -1.04,-2.04 -1.81,-2.49 -0.78,-0.45 -1.73,-0.68 -2.88,-0.68 -1.11,0 -2.14,0.15 -3.07,0.44 -0.93,0.29 -1.94,0.74 -3.03,1.36 v 13.04 c 0.98,0.53 1.96,0.95 2.93,1.26 0.97,0.3 2.03,0.46 3.17,0.46 z"
     style="fill:#ff8700;fill-opacity:1;stroke:none;stroke-opacity:1;stroke-width:0.99961473;stroke-dasharray:none" /><path
     id="9"
     fill="#2B2A29"
     fill-rule="nonzero"
     d="m 375.59,198.56 c -1.2,-0.03 -2.29,-0.42 -3.27,-1.18 -0.99,-0.75 -1.76,-2.02 -2.32,-3.81 l -5.1,-16.31 h 3.31 l 4.75,15.64 c 0.66,1.96 1.76,2.95 3.31,2.95 l 5.46,-18.59 h 3.23 l -7.78,26.81 -1.83,3.95 h -2.47 z"
     style="fill:#ff8700;fill-opacity:1;stroke:none;stroke-opacity:1;stroke-width:0.99961473;stroke-dasharray:none" /><path
     id="10"
     fill="#FF8700"
     fill-rule="nonzero"
     d="M409.78 198.8c-2.45,0 -4.81,-0.8 -7.1,-2.39l-0.6 2.15 -2.55 0 0 -30.44 3.15 0 0 11.09c1.12,-0.64 2.31,-1.17 3.57,-1.6 1.26,-0.42 2.4,-0.63 3.41,-0.63 2.61,0 4.53,0.85 5.77,2.55 1.23,1.7 1.85,4.55 1.85,8.54 0,7.15 -2.5,10.73 -7.5,10.73zm-1 -2.63c1.76,0 3.09,-0.69 3.99,-2.06 0.91,-1.37 1.36,-3.42 1.36,-6.16 0,-2.24 -0.22,-3.96 -0.66,-5.17 -0.44,-1.21 -1.04,-2.04 -1.81,-2.49 -0.78,-0.45 -1.73,-0.68 -2.88,-0.68 -1.11,0 -2.14,0.15 -3.07,0.44 -0.93,0.29 -1.94,0.74 -3.03,1.36l0 13.04c0.98,0.53 1.96,0.95 2.93,1.26 0.97,0.3 2.03,0.46 3.17,0.46z"
     style="stroke-width:0.99961473;stroke-dasharray:none;stroke:none" /><path
     id="11"
     fill="#FF8700"
     fill-rule="nonzero"
     d="M428.93 198.8c-4.25,0 -6.38,-2.18 -6.38,-6.54l0 -15 3.15 0 0 14.2c0,1.7 0.38,2.89 1.14,3.55 0.75,0.67 1.92,1 3.49,1 1.19,0 2.31,-0.17 3.35,-0.5 1.04,-0.33 2.13,-0.85 3.27,-1.54l0 -16.71 3.15 0 0 21.3 -2.47 0 -0.68 -2.35c-2.71,1.73 -5.39,2.59 -8.02,2.59z"
     style="stroke-width:0.99961473;stroke-dasharray:none;stroke:none" /><path
     id="12"
     fill="#FF8700"
     fill-rule="nonzero"
     d="M454.19 198.8c-2.29,0 -4.07,-0.33 -5.33,-1 -1.26,-0.66 -2.17,-1.78 -2.73,-3.35 -0.56,-1.57 -0.84,-3.76 -0.84,-6.58 0,-2.85 0.29,-5.05 0.86,-6.63 0.57,-1.56 1.49,-2.67 2.77,-3.31 1.28,-0.63 3.05,-0.95 5.31,-0.95 1.94,0 3.49,0.21 4.67,0.63 1.17,0.43 2.03,1.16 2.59,2.18 0.56,1.02 0.84,2.44 0.84,4.25 0,1.81 -0.53,3.12 -1.58,3.93 -1.05,0.81 -2.55,1.22 -4.49,1.22l-7.82 0c0.03,1.83 0.21,3.25 0.56,4.24 0.35,1 0.98,1.73 1.92,2.2 0.93,0.46 2.27,0.7 4.03,0.7l6.86 0 0 1.91c-1.44,0.19 -2.72,0.33 -3.83,0.42 -1.12,0.09 -2.38,0.14 -3.79,0.14zm1.79 -11.69c1.23,0 2.12,-0.23 2.68,-0.68 0.55,-0.45 0.83,-1.24 0.83,-2.35 0,-1.78 -0.39,-3.01 -1.17,-3.69 -0.79,-0.68 -2.15,-1.02 -4.09,-1.02 -1.55,0 -2.73,0.23 -3.55,0.68 -0.83,0.45 -1.41,1.22 -1.76,2.31 -0.35,1.09 -0.52,2.68 -0.52,4.75l7.58 0z"
     style="stroke-width:0.99961473;stroke-dasharray:none;stroke:none" /><path
     id="13"
     fill="#FF8700"
     fill-rule="nonzero"
     d="M475.37 198.8c-2.71,0 -4.8,-0.79 -6.28,-2.37 -1.48,-1.59 -2.22,-4.41 -2.22,-8.48 0,-2.85 0.34,-5.07 1.02,-6.66 0.68,-1.6 1.64,-2.71 2.89,-3.34 1.25,-0.62 2.81,-0.93 4.67,-0.93 2.56,0 4.91,0.18 7.07,0.55l0 1.88 -6.23 0c-1.46,0 -2.64,0.24 -3.53,0.72 -0.89,0.48 -1.57,1.34 -2.04,2.57 -0.46,1.24 -0.69,3 -0.69,5.29 0,2.18 0.24,3.87 0.73,5.09 0.5,1.21 1.19,2.04 2.1,2.51 0.9,0.46 2.06,0.7 3.47,0.7l6.5 0 0 1.83c-2.5,0.43 -4.98,0.64 -7.46,0.64z"
     style="stroke-width:0.99961473;stroke-dasharray:none;stroke:none" /><path
     id="14"
     fill="#FF8700"
     fill-rule="nonzero"
     d="M487.18 168.12l3.15 0 0 11.49c1.1,-0.77 2.33,-1.42 3.69,-1.94 1.37,-0.51 2.75,-0.77 4.13,-0.77 2.16,0 3.79,0.66 4.89,1.99 1.11,1.33 1.66,3.05 1.66,5.15l0 14.52 -3.15 0 0 -14.16c0,-1.36 -0.4,-2.47 -1.2,-3.33 -0.8,-0.87 -1.88,-1.3 -3.23,-1.3 -1.28,0 -2.42,0.17 -3.41,0.5 -1,0.33 -2.13,0.86 -3.38,1.57l0 16.72 -3.15 0 0 -30.44z"
     style="stroke-width:0.99961473;stroke-dasharray:none;stroke:none" /><path
     id="15"
     fill="#FF8700"
     fill-rule="nonzero"
     d="M516.23 198.6c-1.89,0 -3.29,-0.52 -4.21,-1.56 -0.92,-1.03 -1.38,-2.8 -1.38,-5.3l0 -23.62 3.16 0 0 23.22c0,1.75 0.23,2.95 0.71,3.59 0.48,0.64 1.24,1.02 2.28,1.16l2.15 0.24 0 2.27 -2.71 0z"
     style="stroke-width:0.99961473;stroke-dasharray:none;stroke:none" /><path
     id="16"
     fill="#FF8700"
     fill-rule="nonzero"
     d="M530.51 198.8c-2.29,0 -4.06,-0.33 -5.32,-1 -1.27,-0.66 -2.18,-1.78 -2.74,-3.35 -0.56,-1.57 -0.84,-3.76 -0.84,-6.58 0,-2.85 0.29,-5.05 0.86,-6.63 0.57,-1.56 1.5,-2.67 2.78,-3.31 1.27,-0.63 3.04,-0.95 5.3,-0.95 1.94,0 3.5,0.21 4.67,0.63 1.17,0.43 2.04,1.16 2.59,2.18 0.56,1.02 0.84,2.44 0.84,4.25 0,1.81 -0.52,3.12 -1.57,3.93 -1.06,0.81 -2.55,1.22 -4.49,1.22l-7.82 0c0.02,1.83 0.21,3.25 0.56,4.24 0.34,1 0.98,1.73 1.91,2.2 0.93,0.46 2.27,0.7 4.03,0.7l6.86 0 0 1.91c-1.43,0.19 -2.71,0.33 -3.83,0.42 -1.11,0.09 -2.38,0.14 -3.79,0.14zm1.8 -11.69c1.22,0 2.11,-0.23 2.67,-0.68 0.56,-0.45 0.84,-1.24 0.84,-2.35 0,-1.78 -0.39,-3.01 -1.18,-3.69 -0.78,-0.68 -2.15,-1.02 -4.09,-1.02 -1.54,0 -2.72,0.23 -3.55,0.68 -0.82,0.45 -1.41,1.22 -1.75,2.31 -0.35,1.09 -0.52,2.68 -0.52,4.75l7.58 0z"
     style="stroke-width:0.99961473;stroke-dasharray:none;stroke:none" /><path
     id="17"
     fill="#FF8700"
     fill-rule="nonzero"
     d="M543.96 177.26l2.39 0 0.76 3.71c1.04,-1.25 2.15,-2.22 3.35,-2.92 1.2,-0.69 2.51,-1.03 3.95,-1.03 0.72,0 1.38,0.06 2,0.2l0 3.23c-1.2,-0.14 -1.97,-0.2 -2.32,-0.2 -1.41,0 -2.62,0.25 -3.65,0.76 -1.02,0.5 -2.13,1.31 -3.33,2.43l0 15.12 -3.15 0 0 -21.3z"
     style="stroke-width:0.99961473;stroke-dasharray:none;stroke:none" /><path
     id="18"
     fill="#FF8700"
     fill-rule="nonzero"
     d="M558.68 198.6c-0.19,0 -0.34,-0.06 -0.46,-0.18 -0.12,-0.12 -0.18,-0.27 -0.18,-0.46l0 -3.19c0,-0.42 0.21,-0.64 0.64,-0.64l1.76 0c0.42,0 0.63,0.22 0.63,0.64l0 3.19c0,0.43 -0.21,0.64 -0.63,0.64l-1.76 0z"
     style="stroke-width:0.99961473;stroke-dasharray:none;stroke:none" /><path
     id="19"
     fill="#FF8700"
     fill-rule="nonzero"
     d="M566.58 177.26l2.55 0 0.6 2.19c0.85,-0.61 1.93,-1.18 3.23,-1.7 1.31,-0.51 2.56,-0.77 3.75,-0.77 2.61,0 4.53,1.02 5.77,3.07 1.24,2.05 1.85,4.65 1.85,7.82 0,3.64 -0.61,6.38 -1.85,8.22 -1.24,1.83 -3.16,2.75 -5.77,2.75 -1.14,0 -2.32,-0.19 -3.53,-0.56 -1.21,-0.37 -2.36,-0.86 -3.45,-1.47l0 11.21 -3.15 0 0 -30.76zm9.26 18.91c3.56,0 5.34,-2.77 5.34,-8.3 0,-2.79 -0.5,-4.87 -1.51,-6.23 -1.01,-1.35 -2.29,-2.03 -3.83,-2.03 -1.12,0 -2.17,0.17 -3.16,0.5 -0.98,0.33 -1.96,0.76 -2.95,1.3l0 13.04c2.02,1.15 4.06,1.72 6.11,1.72z"
     style="stroke-width:0.99961473;stroke-dasharray:none;stroke:none" /><path
     id="20"
     fill="#FF8700"
     fill-rule="nonzero"
     d="M589.64 177.26l2.39 0 0.76 3.71c1.04,-1.25 2.16,-2.22 3.35,-2.92 1.2,-0.69 2.52,-1.03 3.95,-1.03 0.72,0 1.39,0.06 2,0.2l0 3.23c-1.2,-0.14 -1.97,-0.2 -2.32,-0.2 -1.41,0 -2.62,0.25 -3.65,0.76 -1.02,0.5 -2.13,1.31 -3.33,2.43l0 15.12 -3.15 0 0 -21.3z"
     style="stroke-width:0.99961473;stroke-dasharray:none;stroke:none" /><path
     id="21"
     fill="#FF8700"
     fill-rule="nonzero"
     d="M614.54 198.8c-2.18,0 -3.94,-0.31 -5.27,-0.92 -1.33,-0.61 -2.32,-1.71 -2.97,-3.29 -0.65,-1.58 -0.98,-3.82 -0.98,-6.72 0,-2.93 0.33,-5.18 1,-6.76 0.66,-1.59 1.65,-2.67 2.95,-3.26 1.3,-0.58 3.06,-0.87 5.27,-0.87 2.18,0 3.93,0.3 5.26,0.89 1.33,0.6 2.33,1.69 3,3.28 0.66,1.58 0.99,3.82 0.99,6.72 0,2.9 -0.33,5.14 -0.99,6.72 -0.67,1.58 -1.66,2.68 -2.98,3.29 -1.31,0.61 -3.08,0.92 -5.28,0.92zm0 -2.59c1.46,0 2.61,-0.2 3.45,-0.58 0.84,-0.39 1.48,-1.18 1.93,-2.37 0.46,-1.2 0.68,-3 0.68,-5.39 0,-2.4 -0.22,-4.18 -0.66,-5.37 -0.44,-1.18 -1.08,-1.97 -1.93,-2.35 -0.85,-0.39 -2.01,-0.58 -3.47,-0.58 -1.49,0 -2.66,0.19 -3.49,0.58 -0.84,0.38 -1.48,1.17 -1.92,2.35 -0.44,1.19 -0.66,2.97 -0.66,5.37 0,2.39 0.22,4.19 0.66,5.39 0.44,1.19 1.08,1.98 1.92,2.37 0.83,0.38 2,0.58 3.49,0.58z"
     style="stroke-width:0.99961473;stroke-dasharray:none;stroke:none" /></g>
 </g>
</svg>
