<?xml version="1.0" encoding="UTF-8"?>
<!DOCTYPE svg PUBLIC "-//W3C//DTD SVG 1.1//EN" "http://www.w3.org/Graphics/SVG/1.1/DTD/svg11.dtd">
<!-- Creator: CorelDRAW 2017 -->
<svg xmlns="http://www.w3.org/2000/svg" xml:space="preserve" width="30px" height="31px" version="1.1" style="shape-rendering:geometricPrecision; text-rendering:geometricPrecision; image-rendering:optimizeQuality; fill-rule:evenodd; clip-rule:evenodd"
viewBox="0 0 20.56 21.17"
 xmlns:xlink="http://www.w3.org/1999/xlink">
 <defs>
  <style type="text/css">
   <![CDATA[
    .str0 {stroke:#FEFEFE;stroke-width:0.68;stroke-miterlimit:22.9256}
    .str1 {stroke:#FEFEFE;stroke-width:0.68;stroke-linecap:round;stroke-linejoin:round;stroke-miterlimit:22.9256}
    .fil2 {fill:none}
    .fil1 {fill:#0083C4}
    .fil0 {fill:#FF8700}
   ]]>
  </style>
 </defs>
 <g id="Layer_x0020_1">
  <metadata id="CorelCorpID_0Corel-Layer"/>
  <path class="fil0" d="M15.55 14.35c-0.31,0.09 -0.55,0.12 -0.87,0.12 -2.65,0 -6.53,-9.24 -6.53,-12.31 0,-1.14 0.26,-1.51 0.64,-1.84 -3.23,0.38 -7.12,1.57 -8.36,3.08 -0.27,0.38 -0.43,0.97 -0.43,1.72 0,4.81 5.13,15.7 8.74,15.7 1.67,0 4.49,-2.75 6.81,-6.47z"/>
  <path class="fil0" d="M13.86 0c3.35,0 6.7,0.54 6.7,2.43 0,3.83 -2.43,8.47 -3.67,8.47 -2.22,0 -4.97,-6.15 -4.97,-9.23 0,-1.4 0.54,-1.67 1.94,-1.67z"/>
  <rect class="fil1 str0" x="8.7" y="10.22" width="10.61" height="10.61" rx="5.48" ry="5.48"/>
  <polyline class="fil2 str1" points="9.21,17.48 9.52,16.81 9.69,16.89 10.64,15.09 11.57,14.27 12.47,14.95 13.58,13.95 14.15,14.23 14.41,14.09 14.74,14.37 15.3,15.2 16.23,15.39 16.78,15.08 18.8,17.17 "/>
 </g>
</svg>
