<?xml version="1.0" encoding="UTF-8"?>
<!DOCTYPE svg PUBLIC "-//W3C//DTD SVG 1.1//EN" "http://www.w3.org/Graphics/SVG/1.1/DTD/svg11.dtd">
<!-- Creator: CorelDRAW 2017 -->
<svg xmlns="http://www.w3.org/2000/svg" xml:space="preserve" width="1773px" height="600px" version="1.1" style="shape-rendering:geometricPrecision; text-rendering:geometricPrecision; image-rendering:optimizeQuality; fill-rule:evenodd; clip-rule:evenodd"
viewBox="0 0 1743.83 590.12"
 xmlns:xlink="http://www.w3.org/1999/xlink">
 <defs>
  <style type="text/css">
   <![CDATA[
    .str0 {stroke:#2B2A29;stroke-width:29.5;stroke-linecap:round;stroke-linejoin:round;stroke-miterlimit:22.9256}
    .fil1 {fill:none}
    .fil0 {fill:#FEFEFE}
    .fil3 {fill:#FEFEFE;fill-rule:nonzero}
    .fil2 {fill:white;fill-rule:nonzero}
   ]]>
  </style>
 </defs>
 <g id="Layer_x0020_1">
  <metadata id="CorelCorpID_0Corel-Layer"/>
  <rect class="fil0" x="-0.02" y="-0.02" width="590.12" height="590.12" rx="304.9" ry="304.9"/>
  <polyline class="fil1 str0" points="49.69,381.82 65.69,347.71 74.52,351.5 123.09,259.27 170.56,217.58 216.92,252.11 273.77,201.16 303.02,215.48 316.26,207.9 333.37,222.64 362.07,265.17 409.54,274.86 437.69,258.85 541.45,366.24 "/>
  <path class="fil2" d="M688.46 257.8l42.16 0 0 -63.4 23.24 0c39.59,0 73.15,-19.51 73.15,-63.4 0,-45.32 -33.28,-60.24 -74.3,-60.24l-64.25 0 0 187.04zm42.16 -96.96l0 -56.51 19.51 0c22.95,0 35.57,7.17 35.57,26.67 0,19.51 -11.19,29.84 -34.42,29.84l-20.66 0z"/>
  <path id="1" class="fil2" d="M855.98 257.8l42.17 0 0 -142.29 -42.17 0 0 142.29zm20.94 -163.23c14.35,0 24.39,-9.18 24.39,-22.09 0,-12.9 -10.04,-21.8 -24.39,-21.8 -14.05,0 -24.38,8.9 -24.38,21.8 0,12.91 10.33,22.09 24.38,22.09z"/>
  <polygon id="2" class="fil2" points="927.41,257.8 1041.59,257.8 1041.59,224.81 979.91,224.81 1039.58,137.89 1039.58,115.51 934.01,115.51 934.01,148.5 987.08,148.5 927.41,235.13 "/>
  <path id="3" class="fil2" d="M1067.11 310.58l42.17 0 0 -41.59 -1.43 -22.67c10.04,9.47 21.51,14.92 33.85,14.92 30.69,0 59.95,-28.11 59.95,-76.88 0,-43.89 -21.22,-72.29 -55.65,-72.29 -14.91,0 -29.26,7.46 -40.44,17.5l-1.15 0 -2.87 -14.06 -34.43 0 0 195.07zm64.84 -83.76c-7.18,0 -15.21,-2.3 -22.67,-9.18l0 -58.24c8.32,-8.89 15.78,-12.91 24.39,-12.91 16.92,0 24.67,12.91 24.67,38.44 0,29.26 -11.76,41.89 -26.39,41.89z"/>
  <path id="4" class="fil2" d="M1264.19 261.24c16.06,0 29.26,-7.46 41.31,-18.07l1.15 0 2.87 14.63 34.42 0 0 -81.47c0,-43.61 -20.08,-64.26 -56.51,-64.26 -22.38,0 -42.75,7.75 -60.82,18.65l15.21 27.82c13.76,-8.03 25.53,-12.91 37.57,-12.91 15.49,0 21.52,8.04 22.38,20.66 -56.23,5.74 -80.03,22.09 -80.03,51.92 0,24.1 16.35,43.03 42.45,43.03zm14.34 -32.7c-10.04,0 -16.35,-4.31 -16.35,-13.49 0,-10.9 9.76,-19.5 39.59,-23.52l0 24.96c-7.46,7.46 -13.77,12.05 -23.24,12.05z"/>
  <path id="5" class="fil2" d="M1418.24 261.24c9.46,0 16.63,-1.43 21.22,-3.44l-5.16 -31.27c-2.29,0.57 -3.44,0.57 -5.16,0.57 -3.45,0 -7.46,-2.87 -7.46,-11.76l0 -158.63 -42.17 0 0 156.91c0,28.69 9.75,47.62 38.73,47.62z"/>
  <path id="6" class="fil2" d="M1504.29 261.24c19.51,0 32.71,-8.89 44.76,-23.24l0.86 0 3.15 19.8 34.43 0 0 -142.29 -42.17 0 0 94.09c-8.32,11.19 -14.63,15.78 -25.25,15.78 -12.33,0 -17.78,-6.6 -17.78,-26.96l0 -82.91 -42.17 0 0 88.36c0,35.57 13.19,57.37 44.17,57.37z"/>
  <path id="7" class="fil2" d="M1688.17 261.24c16.93,0 35.86,-6.02 50.49,-16.07l-14.05 -25.53c-10.33,6.32 -20.08,9.47 -30.7,9.47 -18.93,0 -33.28,-9.47 -37,-30.12l85.19 0c0.86,-3.44 1.73,-11.19 1.73,-18.65 0,-38.72 -20.09,-68.27 -60.53,-68.27 -34.14,0 -67.13,28.4 -67.13,74.59 0,47.04 31.27,74.58 72,74.58zm-31.55 -90.08c2.87,-18.07 14.34,-26.96 27.54,-26.96 16.92,0 23.81,11.19 23.81,26.96l-51.35 0z"/>
  <polygon class="fil3" points="725.04,482.81 755.37,482.81 755.37,374.62 792.05,374.62 792.05,349.21 688.37,349.21 688.37,374.62 725.04,374.62 "/>
  <path id="1" class="fil3" d="M840.4 485.27c12.09,0 25.62,-4.31 36.07,-11.48l-10.04 -18.23c-7.38,4.5 -14.35,6.76 -21.93,6.76 -13.52,0 -23.77,-6.76 -26.43,-21.52l60.85 0c0.62,-2.46 1.24,-7.99 1.24,-13.32 0,-27.66 -14.35,-48.76 -43.24,-48.76 -24.38,0 -47.95,20.28 -47.95,53.27 0,33.61 22.34,53.28 51.43,53.28zm-22.54 -64.34c2.05,-12.91 10.25,-19.26 19.68,-19.26 12.08,0 17,7.99 17,19.26l-36.68 0z"/>
  <path id="2" class="fil3" d="M901.05 482.81l30.12 0 0 -68.64c6.36,-6.56 12.3,-9.84 17.22,-9.84 8.6,0 12.5,4.51 12.5,19.26l0 59.22 30.12 0 0 -68.64c6.55,-6.56 12.29,-9.84 17.41,-9.84 8.61,0 12.5,4.51 12.5,19.26l0 59.22 30.12 0 0 -63.11c0,-25.41 -9.83,-40.98 -31.76,-40.98 -13.52,0 -22.95,7.79 -31.96,17.01 -5.12,-10.86 -13.73,-17.01 -28.07,-17.01 -13.32,0 -22.34,7.17 -30.74,15.57l-0.82 0 -2.05 -13.11 -24.59 0 0 101.63z"/>
  <path id="3" class="fil3" d="M1076.66 520.51l30.12 0 0 -29.71 -1.03 -16.19c7.17,6.76 15.37,10.66 24.18,10.66 21.93,0 42.82,-20.08 42.82,-54.92 0,-31.35 -15.16,-51.63 -39.75,-51.63 -10.65,0 -20.9,5.33 -28.89,12.5l-0.82 0 -2.05 -10.04 -24.58 0 0 139.33zm46.3 -59.83c-5.12,0 -10.86,-1.64 -16.18,-6.56l0 -41.59c5.94,-6.35 11.27,-9.22 17.41,-9.22 12.09,0 17.62,9.22 17.62,27.45 0,20.9 -8.4,29.92 -18.85,29.92z"/>
  <path id="4" class="fil3" d="M1221.73 485.27c6.76,0 11.88,-1.03 15.16,-2.46l-3.69 -22.34c-1.64,0.41 -2.46,0.41 -3.69,0.41 -2.46,0 -5.33,-2.04 -5.33,-8.4l0 -113.31 -30.12 0 0 112.08c0,20.49 6.97,34.02 27.67,34.02z"/>
  <path id="5" class="fil3" d="M1278.28 485.27c11.47,0 20.9,-5.33 29.5,-12.91l0.82 0 2.05 10.45 24.59 0 0 -58.19c0,-31.15 -14.34,-45.9 -40.36,-45.9 -15.99,0 -30.54,5.53 -43.44,13.32l10.86 19.87c9.83,-5.73 18.23,-9.22 26.84,-9.22 11.06,0 15.37,5.74 15.98,14.75 -40.16,4.1 -57.17,15.78 -57.17,37.09 0,17.21 11.68,30.74 30.33,30.74zm10.24 -23.36c-7.17,0 -11.68,-3.07 -11.68,-9.63 0,-7.79 6.97,-13.94 28.28,-16.8l0 17.82c-5.33,5.33 -9.83,8.61 -16.6,8.61z"/>
  <path id="6" class="fil3" d="M1396.1 485.27c9.83,0 17.21,-2.05 22.54,-3.69l-4.72 -21.93c-2.66,1.03 -6.35,2.05 -9.63,2.05 -7.99,0 -13.11,-4.71 -13.11,-16.18l0 -40.78 24.38 0 0 -23.56 -24.38 0 0 -27.05 -25 0 -3.48 27.05 -15.57 1.23 0 22.33 13.93 0 0 41.19c0,23.56 9.83,39.34 35.04,39.34z"/>
  <path id="7" class="fil3" d="M1477.24 485.27c12.09,0 25.61,-4.31 36.06,-11.48l-10.04 -18.23c-7.38,4.5 -14.34,6.76 -21.92,6.76 -13.53,0 -23.77,-6.76 -26.44,-21.52l60.86 0c0.61,-2.46 1.23,-7.99 1.23,-13.32 0,-27.66 -14.34,-48.76 -43.24,-48.76 -24.38,0 -47.94,20.28 -47.94,53.27 0,33.61 22.33,53.28 51.43,53.28zm-22.54 -64.34c2.05,-12.91 10.24,-19.26 19.67,-19.26 12.09,0 17.01,7.99 17.01,19.26l-36.68 0z"/>
 </g>
</svg>
