<?xml version="1.0" encoding="UTF-8"?>
<!DOCTYPE svg PUBLIC "-//W3C//DTD SVG 1.1//EN" "http://www.w3.org/Graphics/SVG/1.1/DTD/svg11.dtd">
<!-- Creator: CorelDRAW 2017 -->
<svg xmlns="http://www.w3.org/2000/svg" xml:space="preserve" width="1669px" height="600px" version="1.1" style="shape-rendering:geometricPrecision; text-rendering:geometricPrecision; image-rendering:optimizeQuality; fill-rule:evenodd; clip-rule:evenodd"
viewBox="0 0 1545.55 555.5"
 xmlns:xlink="http://www.w3.org/1999/xlink">
 <defs>
  <style type="text/css">
   <![CDATA[
    .str0 {stroke:#2B2A29;stroke-width:27.77;stroke-linecap:round;stroke-linejoin:round;stroke-miterlimit:22.9256}
    .fil1 {fill:none}
    .fil0 {fill:#FEFEFE}
    .fil2 {fill:#FEFEFE;fill-rule:nonzero}
   ]]>
  </style>
 </defs>
 <g id="Layer_x0020_1">
  <metadata id="CorelCorpID_0Corel-Layer"/>
  <rect class="fil0" x="-0.02" y="-0.02" width="555.5" height="555.5" rx="287.01" ry="287.01"/>
  <polyline class="fil1 str0" points="46.77,359.43 61.84,327.32 70.15,330.88 115.87,244.07 160.55,204.82 204.19,237.33 257.71,189.36 285.24,202.84 297.71,195.7 313.82,209.58 340.84,249.62 385.52,258.73 412.01,243.67 509.69,344.76 "/>
  <path class="fil2" d="M658.26 275.01l39 0 0 -58.63 21.49 0c36.61,0 67.65,-18.04 67.65,-58.63 0,-41.92 -30.78,-55.72 -68.71,-55.72l-59.43 0 0 172.98zm39 -89.67l0 -52.26 18.04 0c21.22,0 32.9,6.63 32.9,24.67 0,18.04 -10.35,27.59 -31.84,27.59l-19.1 0zm115.94 89.67l39 0 0 -131.59 -39 0 0 131.59zm19.36 -150.96c13.27,0 22.55,-8.49 22.55,-20.42 0,-11.94 -9.28,-20.17 -22.55,-20.17 -13,0 -22.55,8.23 -22.55,20.17 0,11.93 9.55,20.42 22.55,20.42zm46.7 150.96l105.59 0 0 -30.51 -57.04 0 55.18 -80.38 0 -20.7 -97.63 0 0 30.51 49.08 0 -55.18 80.12 0 20.96zm185.45 0l38.99 0 0 -58.63 21.49 0c36.62,0 67.66,-18.04 67.66,-58.63 0,-41.92 -30.78,-55.72 -68.72,-55.72l-59.42 0 0 172.98zm38.99 -89.67l0 -52.26 18.05 0c21.22,0 32.89,6.63 32.89,24.67 0,18.04 -10.34,27.59 -31.83,27.59l-19.11 0zm140.09 92.86c14.85,0 27.06,-6.9 38.2,-16.72l1.06 0 2.65 13.53 31.84 0 0 -75.34c0,-40.33 -18.57,-59.43 -52.26,-59.43 -20.7,0 -39.54,7.16 -56.25,17.24l14.06 25.74c12.74,-7.43 23.61,-11.94 34.76,-11.94 14.32,0 19.89,7.43 20.69,19.1 -52,5.31 -74.02,20.43 -74.02,48.02 0,22.29 15.12,39.8 39.27,39.8zm13.26 -30.25c-9.29,0 -15.12,-3.98 -15.12,-12.47 0,-10.08 9.02,-18.04 36.61,-21.75l0 23.08c-6.9,6.9 -12.73,11.14 -21.49,11.14zm129.2 30.25c8.76,0 15.39,-1.33 19.64,-3.19l-4.78 -28.91c-2.12,0.53 -3.18,0.53 -4.77,0.53 -3.19,0 -6.9,-2.66 -6.9,-10.88l0 -146.72 -39 0 0 145.13c0,26.53 9.02,44.04 35.81,44.04zm79.6 0c18.04,0 30.24,-8.23 41.38,-21.49l0.8 0 2.92 18.3 31.83 0 0 -131.59 -39 0 0 87.02c-7.69,10.35 -13.53,14.59 -23.34,14.59 -11.41,0 -16.45,-6.1 -16.45,-24.94l0 -76.67 -39 0 0 81.72c0,32.89 12.2,53.06 40.86,53.06zm-10.09 -154.15c11.15,0 18.84,-8.22 18.84,-19.1 0,-10.61 -7.69,-18.83 -18.84,-18.83 -11.14,0 -19.1,8.22 -19.1,18.83 0,10.88 7.96,19.1 19.1,19.1zm57.84 0c11.14,0 19.1,-8.22 19.1,-19.1 0,-10.61 -7.96,-18.83 -19.1,-18.83 -11.14,0 -18.84,8.22 -18.84,18.83 0,10.88 7.7,19.1 18.84,19.1z"/>
  <path class="fil2" d="M661.38 427.12l32.77 0c32.59,0 54.44,-17.92 54.44,-56.15 0,-38.23 -21.85,-55.12 -55.81,-55.12l-31.4 0 0 111.27zm25.09 -20.31l0 -70.65 4.78 0c18.94,0 31.57,8.19 31.57,34.81 0,26.62 -12.63,35.84 -31.57,35.84l-4.78 0zm81.23 20.31l25.09 0 0 -84.65 -25.09 0 0 84.65zm12.46 -97.11c8.53,0 14.5,-5.46 14.5,-13.14 0,-7.68 -5.97,-12.97 -14.5,-12.97 -8.36,0 -14.51,5.29 -14.51,12.97 0,7.68 6.15,13.14 14.51,13.14zm59.56 99.16c22.69,0 34.81,-11.95 34.81,-27.31 0,-15.53 -12.12,-21.5 -22.87,-25.43 -8.7,-3.24 -16.55,-5.29 -16.55,-10.75 0,-4.26 3.07,-6.65 9.56,-6.65 5.97,0 11.77,2.73 17.91,7.16l11.27 -15.01c-7.34,-5.46 -16.9,-10.76 -29.87,-10.76 -19.62,0 -32.42,10.76 -32.42,26.46 0,13.99 12.11,20.99 22.35,24.91 8.71,3.42 17.24,5.98 17.24,11.61 0,4.43 -3.24,7.16 -10.75,7.16 -7.17,0 -14.17,-3.07 -21.85,-8.87l-11.26 15.7c8.53,7 21.33,11.78 32.43,11.78zm79.86 0c8.2,0 14.34,-1.71 18.78,-3.08l-3.93 -18.26c-2.22,0.86 -5.29,1.71 -8.02,1.71 -6.66,0 -10.92,-3.92 -10.92,-13.48l0 -33.96 20.31 0 0 -19.63 -20.31 0 0 -22.52 -20.82 0 -2.9 22.52 -12.97 1.03 0 18.6 11.6 0 0 34.3c0,19.63 8.19,32.77 29.18,32.77zm32.77 -2.05l25.09 0 0 -49.15c4.43,-11.43 12.28,-15.53 18.6,-15.53 3.58,0 6.14,0.51 9.21,1.37l4.1 -21.68c-2.39,-1.02 -5.29,-1.71 -10.07,-1.71 -8.7,0 -17.92,5.47 -24.06,16.9l-0.68 0 -1.71 -14.85 -20.48 0 0 84.65zm67.92 0l25.09 0 0 -84.65 -25.09 0 0 84.65zm12.46 -97.11c8.53,0 14.51,-5.46 14.51,-13.14 0,-7.68 -5.98,-12.97 -14.51,-12.97 -8.36,0 -14.51,5.29 -14.51,12.97 0,7.68 6.15,13.14 14.51,13.14zm79.01 99.16c18.26,0 35.67,-16.73 35.67,-45.91 0,-25.94 -12.8,-42.84 -33.28,-42.84 -7.85,0 -15.87,3.59 -22.35,9.39l0.68 -12.97 0 -29.35 -25.09 0 0 119.63 19.63 0 2.05 -9.05 0.68 0c6.65,7.34 14.5,11.1 22.01,11.1zm-5.8 -20.48c-4.27,0 -9.04,-1.37 -13.48,-5.46l0 -34.65c4.78,-5.29 9.39,-7.68 14.51,-7.68 10.06,0 14.67,7.68 14.67,22.87 0,17.41 -7,24.92 -15.7,24.92zm84.65 20.48c11.6,0 19.45,-5.29 26.62,-13.83l0.51 0 1.88 11.78 20.48 0 0 -84.65 -25.09 0 0 55.98c-4.95,6.65 -8.7,9.38 -15.02,9.38 -7.34,0 -10.58,-3.92 -10.58,-16.04l0 -49.32 -25.08 0 0 52.56c0,21.17 7.85,34.14 26.28,34.14zm104.1 0c8.19,0 14.33,-1.71 18.77,-3.08l-3.92 -18.26c-2.22,0.86 -5.3,1.71 -8.03,1.71 -6.65,0 -10.92,-3.92 -10.92,-13.48l0 -33.96 20.31 0 0 -19.63 -20.31 0 0 -22.52 -20.82 0 -2.9 22.52 -12.97 1.03 0 18.6 11.6 0 0 34.3c0,19.63 8.2,32.77 29.19,32.77zm32.76 -2.05l25.09 0 0 -84.65 -25.09 0 0 84.65zm12.46 -97.11c8.53,0 14.51,-5.46 14.51,-13.14 0,-7.68 -5.98,-12.97 -14.51,-12.97 -8.36,0 -14.5,5.29 -14.5,12.97 0,7.68 6.14,13.14 14.5,13.14zm70.99 99.16c21.34,0 41.13,-16.22 41.13,-44.37 0,-28.16 -19.79,-44.38 -41.13,-44.38 -21.5,0 -41.3,16.22 -41.3,44.38 0,28.15 19.8,44.37 41.3,44.37zm0 -20.31c-10.41,0 -15.53,-9.39 -15.53,-24.06 0,-14.68 5.12,-24.07 15.53,-24.07 10.24,0 15.53,9.39 15.53,24.07 0,14.67 -5.29,24.06 -15.53,24.06zm58.37 18.26l25.09 0 0 -57.17c5.46,-5.29 9.38,-8.19 15.7,-8.19 7.16,0 10.41,3.75 10.41,16.04l0 49.32 25.08 0 0 -52.56c0,-21.17 -7.85,-34.14 -26.28,-34.14 -11.43,0 -19.97,5.98 -27.13,12.8l-0.69 0 -1.7 -10.75 -20.48 0 0 84.65z"/>
 </g>
</svg>
