<?xml version="1.0" encoding="UTF-8" standalone="no"?>
<!-- Created with Inkscape (http://www.inkscape.org/) -->

<svg
   width="1122.5197"
   height="793.70081"
   viewBox="0 0 296.99999 210"
   version="1.1"
   id="svg13574"
   inkscape:version="1.2.2 (b0a8486541, 2022-12-01, custom)"
   sodipodi:docname="all.svg"
   xmlns:inkscape="http://www.inkscape.org/namespaces/inkscape"
   xmlns:sodipodi="http://sodipodi.sourceforge.net/DTD/sodipodi-0.dtd"
   xmlns="http://www.w3.org/2000/svg"
   xmlns:svg="http://www.w3.org/2000/svg">
  <sodipodi:namedview
     id="namedview13576"
     pagecolor="#ffffff"
     bordercolor="#000000"
     borderopacity="0.25"
     inkscape:showpageshadow="2"
     inkscape:pageopacity="0.0"
     inkscape:pagecheckerboard="0"
     inkscape:deskcolor="#d1d1d1"
     inkscape:document-units="px"
     showgrid="false"
     inkscape:zoom="2.3304714"
     inkscape:cx="335.98352"
     inkscape:cy="260.46232"
     inkscape:window-width="1920"
     inkscape:window-height="1163"
     inkscape:window-x="0"
     inkscape:window-y="0"
     inkscape:window-maximized="1"
     inkscape:current-layer="g20540" />
  <defs
     id="defs13571" />
  <g
     inkscape:label="Ebene 1"
     inkscape:groupmode="layer"
     id="layer1">
    <g
       id="g14209"
       transform="matrix(0.99924616,0,0,0.99924616,-90.941798,-21.040941)">
      <rect
         class="fil0 str0"
         x="160.52963"
         y="48.210773"
         width="35.718281"
         height="35.718281"
         id="rect14030"
         style="clip-rule:evenodd;fill:#005e8e;fill-rule:evenodd;stroke:#9d9e9e;stroke-width:1.35133;stroke-miterlimit:22.9256;stroke-dasharray:none;stroke-opacity:1;image-rendering:optimizeQuality;shape-rendering:geometricPrecision;text-rendering:geometricPrecision" />
      <rect
         class="fil1"
         x="165.55814"
         y="54.677319"
         width="25.953466"
         height="21.839911"
         id="rect14032"
         style="clip-rule:evenodd;fill:#fefefe;fill-rule:evenodd;stroke-width:0.0619045;image-rendering:optimizeQuality;shape-rendering:geometricPrecision;text-rendering:geometricPrecision" />
      <path
         class="fil2"
         d="m 188.58413,58.024495 0.62709,-0.888949 -0.58004,-0.827663 h 0.35719 l 0.27114,0.405475 c 0.0508,0.07614 0.0904,0.138047 0.11824,0.186332 0.0489,-0.06871 0.0928,-0.131237 0.13185,-0.186951 l 0.28538,-0.404856 h 0.35596 l -0.58376,0.827663 0.62152,0.888949 h -0.3541 l -0.35471,-0.528664 -0.0811,-0.127524 -0.45872,0.656188 z"
         id="path14034"
         style="clip-rule:evenodd;fill:#2b2a29;fill-rule:nonzero;stroke-width:0.0619045;image-rendering:optimizeQuality;shape-rendering:geometricPrecision;text-rendering:geometricPrecision" />
      <rect
         class="fil3 str1"
         x="179.87849"
         y="71.161873"
         width="9.9232931"
         height="3.8975079"
         id="rect14036"
         style="clip-rule:evenodd;fill:#3d98d3;fill-rule:evenodd;stroke:#3d98d3;stroke-width:0.238332;stroke-miterlimit:22.9256;image-rendering:optimizeQuality;shape-rendering:geometricPrecision;text-rendering:geometricPrecision" />
    </g>
    <g
       id="g14446"
       transform="matrix(0.31966733,0,0,0.31966733,69.60357,9.6779368)">
      <rect
         class="fil4 str4"
         x="132.00157"
         y="54.605385"
         width="111.65152"
         height="111.65152"
         id="rect14246"
         style="clip-rule:evenodd;fill:#ffffff;fill-opacity:1;fill-rule:evenodd;stroke:#9d9e9e;stroke-width:4.22415;stroke-miterlimit:22.9256;stroke-dasharray:none;image-rendering:optimizeQuality;shape-rendering:geometricPrecision;text-rendering:geometricPrecision" />
      <path
         class="fil1"
         d="m 134.04433,164.11721 h 108.61922 v -45.90765 l -29.7061,-50.218485 c -1.59083,-2.689608 -4.17062,-2.689608 -5.76145,0 l -38.24621,56.225375 -15.73331,-10.32041 c -1.59083,-2.68693 -4.17063,-2.68693 -5.76146,0 l -13.41069,22.67605 z"
         id="path14234"
         style="clip-rule:evenodd;fill:#29b7ff;fill-rule:evenodd;stroke-width:0.266113;image-rendering:optimizeQuality;shape-rendering:geometricPrecision;text-rendering:geometricPrecision" />
      <path
         class="fil1"
         d="m 155.17643,64.127739 c -7.48242,0 -13.54932,6.066895 -13.54932,13.549312 0,7.482417 6.0669,13.549312 13.54932,13.549312 7.48241,0 13.54931,-6.066895 13.54931,-13.549312 0,-7.482417 -6.0669,-13.549312 -13.54931,-13.549312 z"
         id="path14236"
         style="clip-rule:evenodd;fill:#29b7ff;fill-rule:evenodd;stroke-width:0.264583;image-rendering:optimizeQuality;shape-rendering:geometricPrecision;text-rendering:geometricPrecision" />
      <rect
         class="fil2 str1"
         x="134.38579"
         y="139.88519"
         width="107.91531"
         height="23.914585"
         id="rect14238"
         style="clip-rule:evenodd;fill:#0083c4;fill-rule:evenodd;stroke:#0083c4;stroke-width:0.633644;stroke-miterlimit:22.9256;image-rendering:optimizeQuality;shape-rendering:geometricPrecision;text-rendering:geometricPrecision" />
      <rect
         class="fil3 str2"
         x="220.32547"
         y="139.91139"
         width="22.00317"
         height="23.857752"
         id="rect14240"
         style="clip-rule:evenodd;fill:#005e8e;fill-rule:evenodd;stroke:#005e8e;stroke-width:0.638951;stroke-miterlimit:22.9256;image-rendering:optimizeQuality;shape-rendering:geometricPrecision;text-rendering:geometricPrecision" />
      <polyline
         class="fil4 str3"
         points="353.62,395.43 381.86,364.81 410.1,395.43 "
         id="polyline14242"
         style="clip-rule:evenodd;fill:none;fill-rule:evenodd;stroke:#fefefe;stroke-width:10;stroke-linecap:round;stroke-miterlimit:22.9256;image-rendering:optimizeQuality;shape-rendering:geometricPrecision;text-rendering:geometricPrecision"
         transform="matrix(0.27074161,0,0,0.27074161,128.05944,49.267111)" />
    </g>
    <g
       id="g13733"
       transform="matrix(0.07408333,0,0,0.07408333,26.458332,26.458333)">
  <rect
   fill="#005e8e"
   x="8.9300003"
   y="314.25"
   width="482.14001"
   height="175.33"
   id="rect13711" />

  <g
   id="g13721">
   <rect
   fill="#c7ebff"
   x="8.9300003"
   y="13.54"
   width="477.92001"
   height="248.57001"
   id="rect13713" />

   <path
   fill="#666666"
   d="m 31.83,232.82 86.2,-36.91 88.19,-100.66 c 4.72,-5.39 12.39,-5.39 17.11,0 l 113.55,112.69 46.71,-20.68 c 7.49,-3.56 10.61,-3.49 17.1,0 l 44.1,45.56 z"
   id="path13715" />

   <circle
   fill="#ffffff"
   cx="382.92999"
   cy="78.800003"
   r="32.549999"
   id="circle13717" />

   <line
   fill="none"
   stroke="#ffffff"
   stroke-width="3.66"
   stroke-miterlimit="22.9256"
   x1="8.9300003"
   y1="232.82001"
   x2="491.07001"
   y2="232.82001"
   id="line13719" />

  </g>

  <rect
   fill="#fefefe"
   x="4.71"
   y="232.82001"
   width="489.04999"
   height="196.17"
   id="rect13723" />

  <rect
   fill="none"
   stroke="#9d9e9e"
   stroke-width="17.86"
   stroke-miterlimit="22.9256"
   x="8.9300003"
   y="8.9300003"
   width="482.14001"
   height="482.14001"
   id="rect13725"
   style="stroke-width:17.85826826;stroke-dasharray:none" />

  <line
   fill="none"
   stroke="#999999"
   stroke-width="21.97"
   stroke-miterlimit="22.9256"
   x1="66.449997"
   y1="287.19"
   x2="418.47"
   y2="287.19"
   id="line13727" />

  <line
   fill="none"
   stroke="#999999"
   stroke-width="21.97"
   stroke-miterlimit="22.9256"
   x1="66.449997"
   y1="334.76001"
   x2="330.57999"
   y2="334.76001"
   id="line13729" />

  <line
   fill="none"
   stroke="#999999"
   stroke-width="21.97"
   stroke-miterlimit="22.9256"
   x1="66.449997"
   y1="380.16"
   x2="373.25"
   y2="380.16"
   id="line13731" />

 </g>
    <g
       id="g18503"
       transform="matrix(0.31966733,0,0,0.31966733,89.215365,46.781458)">
      <rect
         class="fil1 str1"
         x="70.650932"
         y="70.965553"
         width="111.65152"
         height="111.65152"
         id="rect17534"
         style="clip-rule:evenodd;fill:#ffffff;fill-opacity:1;fill-rule:evenodd;stroke:#9d9e9e;stroke-width:4.22415;stroke-miterlimit:22.9256;stroke-dasharray:none;stroke-opacity:0.835294;image-rendering:optimizeQuality;shape-rendering:geometricPrecision;text-rendering:geometricPrecision" />
      <g
         id="_1849136910928"
         style="clip-rule:evenodd;fill-rule:evenodd;image-rendering:optimizeQuality;shape-rendering:geometricPrecision;text-rendering:geometricPrecision"
         transform="matrix(0.26458333,0,0,0.26458333,67.343643,67.658262)">
   <rect
   class="fil1 str2"
   x="64.769997"
   y="67.389999"
   width="313.5"
   height="70.830002"
   id="rect17536"
   style="fill:none;stroke:#075e8e;stroke-width:9.38;stroke-miterlimit:22.9256" />

   <rect
   class="fil2"
   x="348.37"
   y="103.13"
   width="29.9"
   height="35.09"
   id="rect17538"
   style="fill:#075e8e" />

  </g>
      <g
         id="_1849136910672"
         style="clip-rule:evenodd;fill-rule:evenodd;image-rendering:optimizeQuality;shape-rendering:geometricPrecision;text-rendering:geometricPrecision"
         transform="matrix(0.26458333,0,0,0.26458333,67.343643,67.658262)">
   <rect
   class="fil1 str2"
   x="64.769997"
   y="185.55"
   width="313.5"
   height="70.830002"
   id="rect17541"
   style="fill:none;stroke:#075e8e;stroke-width:9.38;stroke-miterlimit:22.9256" />

   <rect
   class="fil2"
   x="348.37"
   y="221.28"
   width="29.9"
   height="35.09"
   id="rect17543"
   style="fill:#075e8e" />

  </g>
      <g
         id="_1849136912752"
         style="clip-rule:evenodd;fill-rule:evenodd;image-rendering:optimizeQuality;shape-rendering:geometricPrecision;text-rendering:geometricPrecision"
         transform="matrix(0.26458333,0,0,0.26458333,67.343643,67.658262)">
   <rect
   class="fil1 str2"
   x="64.769997"
   y="303.70001"
   width="317.03"
   height="70.830002"
   id="rect17546"
   style="fill:none;stroke:#075e8e;stroke-width:9.38;stroke-miterlimit:22.9256" />

   <rect
   class="fil2"
   x="351.57001"
   y="339.44"
   width="30.23"
   height="35.09"
   id="rect17548"
   style="fill:#075e8e" />

  </g>
    </g>
    <g
       id="g20224"
       transform="matrix(0.99924621,0,0,0.99924621,-65.683114,1.0147814)">
      <rect
         class="fil0 str0"
         x="92.88662"
         y="68.503677"
         width="35.718281"
         height="35.718281"
         id="rect19321"
         style="clip-rule:evenodd;fill:#005e8e;fill-rule:evenodd;stroke:#9d9e9e;stroke-width:1.35133;stroke-miterlimit:22.9256;stroke-dasharray:none;stroke-opacity:0.98889;image-rendering:optimizeQuality;shape-rendering:geometricPrecision;text-rendering:geometricPrecision" />
      <path
         class="fil1"
         d="m 102.69663,100.4625 c -2.1518,0 -3.660416,-0.37019 -4.524603,-1.111189 -0.864187,-0.740996 -1.29628,-1.888087 -1.29628,-3.440033 v -6.483259 c 0,-0.493998 -0.163428,-0.88214 -0.489665,-1.163805 -0.326856,-0.282904 -0.754616,-0.406094 -1.28328,-0.370808 v -3.625128 c 1.19909,-0.105857 1.798945,-0.617807 1.798945,-1.535232 v -5.18636 c 0,-3.280939 1.932039,-4.922028 5.794883,-4.922028 v 3.149083 c -0.49338,0 -0.86852,0.09719 -1.12419,0.290951 -0.25566,0.19438 -0.44076,0.52495 -0.5559,0.992329 -0.11452,0.467998 -0.17148,1.142758 -0.17148,2.024278 v 4.313506 c 0,1.64047 -0.873469,2.531894 -2.619795,2.672418 0.793616,0.141761 1.424423,0.437046 1.891805,0.887091 0.46738,0.449427 0.70137,1.01833 0.70137,1.706708 v 5.900738 c 0,1.0759 0.12753,1.839183 0.38381,2.288609 0.25567,0.450046 0.754,0.674759 1.49438,0.674759 z"
         id="path19323"
         style="clip-rule:evenodd;fill:#fefefe;fill-rule:nonzero;stroke-width:0.0619045;image-rendering:optimizeQuality;shape-rendering:geometricPrecision;text-rendering:geometricPrecision" />
      <path
         id="1"
         class="fil1"
         d="m 110.6885,95.064424 c -1.00595,0 -2.08185,-0.0619 -3.22832,-0.185094 -1.14709,-0.123809 -2.11713,-0.282285 -2.91075,-0.476665 V 91.30682 c 1.5699,0.158476 3.55456,0.238333 5.95398,0.238333 1.0759,0 1.88746,-0.145476 2.43408,-0.437046 0.54724,-0.290951 0.82024,-0.806616 0.82024,-1.547613 v -0.714378 c 0,-0.581902 -0.1721,-1.027615 -0.51567,-1.336518 -0.34419,-0.308904 -0.83385,-0.463046 -1.46899,-0.463046 h -1.66709 c -1.94009,0 -3.39113,-0.423427 -4.35251,-1.27028 -0.96137,-0.846235 -1.44237,-2.231658 -1.44237,-4.154412 v -0.952711 c 0,-3.66908 2.10785,-5.50393 6.32416,-5.50393 0.988,0 2.01128,0.06624 3.06985,0.198095 1.05856,0.133095 2.01066,0.287237 2.85813,0.463665 v 3.095844 c -2.41737,-0.159094 -4.24294,-0.238332 -5.47793,-0.238332 -1.00533,0 -1.76428,0.154761 -2.27561,0.463046 -0.51195,0.308903 -0.76762,0.877806 -0.76762,1.707326 v 0.528664 c 0,0.670426 0.19005,1.160091 0.5689,1.468994 0.37948,0.308285 0.95705,0.463046 1.73333,0.463046 h 1.93142 c 1.69371,0 2.98628,0.463046 3.87708,1.389137 0.89081,0.926092 1.33652,2.138801 1.33652,3.638748 v 1.111185 c 0,1.481994 -0.27362,2.632799 -0.82085,3.453034 -0.54662,0.820235 -1.31424,1.385423 -2.30223,1.693707 -0.988,0.308904 -2.21371,0.463046 -3.67775,0.463046 z"
         style="clip-rule:evenodd;fill:#fefefe;fill-rule:nonzero;stroke-width:0.0619045;image-rendering:optimizeQuality;shape-rendering:geometricPrecision;text-rendering:geometricPrecision" />
      <path
         id="2"
         class="fil1"
         d="m 119.07656,97.525128 c 0.741,0 1.23933,-0.224713 1.49561,-0.674759 0.25567,-0.449426 0.38319,-1.212709 0.38319,-2.288609 v -5.900738 c 0,-0.688378 0.234,-1.257281 0.70138,-1.706708 0.46738,-0.450045 1.09819,-0.74533 1.8918,-0.887091 -1.74632,-0.140524 -2.61918,-1.031948 -2.61918,-2.672418 v -4.313506 c 0,-0.899473 -0.0532,-1.582899 -0.15909,-2.050897 -0.10586,-0.46676 -0.29095,-0.793615 -0.55528,-0.97871 -0.26496,-0.185094 -0.64443,-0.277951 -1.13843,-0.277951 v -3.149083 c 3.86346,0 5.7955,1.641089 5.7955,4.922028 v 5.18636 c 0,0.917425 0.59924,1.429375 1.79895,1.535232 v 3.625128 c -0.52929,-0.03529 -0.95705,0.0879 -1.28328,0.370808 -0.32624,0.281665 -0.48905,0.669807 -0.48905,1.163805 v 6.483259 c 0,1.551946 -0.43271,2.699037 -1.2969,3.440033 -0.86481,0.740999 -2.3728,1.111189 -4.52522,1.111189 z"
         style="clip-rule:evenodd;fill:#fefefe;fill-rule:nonzero;stroke-width:0.0619045;image-rendering:optimizeQuality;shape-rendering:geometricPrecision;text-rendering:geometricPrecision" />
    </g>
    <g
       id="g20540"
       transform="matrix(0.28000561,0,0,0.28000561,57.038315,48.566526)">
      <rect
         class="fil4 str2"
         x="45.675682"
         y="75.931465"
         width="124.88847"
         height="124.88847"
         id="rect20325"
         style="clip-rule:evenodd;fill:#ffffff;fill-rule:evenodd;stroke:#9b9d9d;stroke-width:4.72490527;stroke-miterlimit:22.9256;image-rendering:optimizeQuality;shape-rendering:geometricPrecision;text-rendering:geometricPrecision;stroke-opacity:1;stroke-dasharray:none;fill-opacity:1"
         transform="translate(3.2806005e-6)" />
      <path
         class="fil1"
         d="M 136.14736,198.3386 H 48.097566 v -50.86716 l 24.08021,-55.645639 c 1.288547,-2.981914 3.381443,-2.981914 4.669989,0 l 31.004495,62.300039 12.75317,-11.43552 c 1.28854,-2.97662 3.38144,-2.97662 4.66999,0 l 10.87194,25.12534 z"
         id="path20319"
         style="clip-rule:evenodd;fill:#005e8e;fill-rule:evenodd;stroke-width:0.264589;image-rendering:optimizeQuality;shape-rendering:geometricPrecision;text-rendering:geometricPrecision" />
      <path
         class="fil2"
         d="m 107.68732,88.795761 c 8.36894,0 15.15563,6.784053 15.15563,15.155639 0,8.36894 -6.78669,15.15563 -15.15563,15.15563 -8.36894,0 -15.155638,-6.78669 -15.155638,-15.15563 0,-8.371586 6.786698,-15.155639 15.155638,-15.155639 z"
         id="path20321"
         style="clip-rule:evenodd;fill:#29b7ff;fill-rule:evenodd;stroke-width:0.264589;image-rendering:optimizeQuality;shape-rendering:geometricPrecision;text-rendering:geometricPrecision" />
      <polygon
         class="fil3 str1"
         points="452.35,157.5 225.14,157.5 225.14,363.57 452.35,363.57 "
         id="polygon20323"
         style="clip-rule:evenodd;fill:#ffffff;fill-opacity:0.901961;fill-rule:evenodd;stroke:#0083c4;stroke-width:5.97;stroke-miterlimit:22.9256;stroke-opacity:0.901961;image-rendering:optimizeQuality;shape-rendering:geometricPrecision;text-rendering:geometricPrecision"
         transform="matrix(0.26458862,0,0,0.26458862,41.974088,72.229868)" />
      <line
         class="fil4 str3"
         x1="111.48946"
         y1="126.98119"
         x2="150.20406"
         y2="126.98119"
         id="line20329"
         style="clip-rule:evenodd;fill:none;fill-rule:evenodd;stroke:#666666;stroke-width:4.73614;stroke-linecap:round;stroke-miterlimit:22.9256;image-rendering:optimizeQuality;shape-rendering:geometricPrecision;text-rendering:geometricPrecision" />
      <line
         class="fil4 str3"
         x1="111.24075"
         y1="141.04672"
         x2="149.95535"
         y2="141.04672"
         id="line20331"
         style="clip-rule:evenodd;fill:none;fill-rule:evenodd;stroke:#666666;stroke-width:4.73614;stroke-linecap:round;stroke-miterlimit:22.9256;image-rendering:optimizeQuality;shape-rendering:geometricPrecision;text-rendering:geometricPrecision" />
      <line
         class="fil4 str3"
         x1="110.95763"
         y1="154.55927"
         x2="149.67488"
         y2="154.55927"
         id="line20333"
         style="clip-rule:evenodd;fill:none;fill-rule:evenodd;stroke:#666666;stroke-width:4.73614;stroke-linecap:round;stroke-miterlimit:22.9256;image-rendering:optimizeQuality;shape-rendering:geometricPrecision;text-rendering:geometricPrecision" />
    </g>
  </g>
</svg>
