<?xml version="1.0" encoding="UTF-8"?>
<!DOCTYPE svg PUBLIC "-//W3C//DTD SVG 1.1//EN" "http://www.w3.org/Graphics/SVG/1.1/DTD/svg11.dtd">
<!-- Creator: CorelDRAW 2017 -->
<svg xmlns="http://www.w3.org/2000/svg" xml:space="preserve" width="143px" height="143px" version="1.1" style="shape-rendering:geometricPrecision; text-rendering:geometricPrecision; image-rendering:optimizeQuality; fill-rule:evenodd; clip-rule:evenodd"
viewBox="0 0 611.19 611.19"
 xmlns:xlink="http://www.w3.org/1999/xlink">
 <defs>
  <style type="text/css">
   <![CDATA[
    .str0 {stroke:#005E8E;stroke-width:34.19;stroke-miterlimit:22.9256}
    .fil0 {fill:#005E8E}
    .fil1 {fill:#FEFEFE;fill-rule:nonzero}
   ]]>
  </style>
 </defs>
 <g id="Layer_x0020_1">
  <metadata id="CorelCorpID_0Corel-Layer"/>
  <rect class="fil0 str0" x="17.1" y="17.1" width="576.99" height="576.99"/>
  <path class="fil1" d="M175.57 533.36c-34.76,0 -59.13,-5.98 -73.09,-17.95 -13.96,-11.97 -20.94,-30.5 -20.94,-55.57l0 -104.73c0,-7.98 -2.64,-14.25 -7.91,-18.8 -5.28,-4.57 -12.19,-6.56 -20.73,-5.99l0 -58.56c19.37,-1.71 29.06,-9.98 29.06,-24.8l0 -83.78c0,-53 31.21,-79.51 93.61,-79.51l0 50.87c-7.97,0 -14.03,1.57 -18.16,4.7 -4.13,3.14 -7.12,8.48 -8.98,16.03 -1.85,7.56 -2.77,18.46 -2.77,32.7l0 69.68c0,26.5 -14.11,40.9 -42.32,43.17 12.82,2.29 23.01,7.06 30.56,14.33 7.55,7.26 11.33,16.45 11.33,27.57l0 95.32c0,17.38 2.06,29.71 6.2,36.97 4.13,7.27 12.18,10.9 24.14,10.9l0 47.45z"/>
  <path id="1" class="fil1" d="M304.67 446.16c-16.25,0 -33.63,-1 -52.15,-2.99 -18.53,-2 -34.2,-4.56 -47.02,-7.7l0 -50.01c25.36,2.56 57.42,3.85 96.18,3.85 17.38,0 30.49,-2.35 39.32,-7.06 8.84,-4.7 13.25,-13.03 13.25,-25l0 -11.54c0,-9.4 -2.78,-16.6 -8.33,-21.59 -5.56,-4.99 -13.47,-7.48 -23.73,-7.48l-26.93 0c-31.34,0 -54.78,-6.84 -70.31,-20.52 -15.53,-13.67 -23.3,-36.05 -23.3,-67.11l0 -15.39c0,-59.27 34.05,-88.91 102.16,-88.91 15.96,0 32.49,1.07 49.59,3.2 17.1,2.15 32.48,4.64 46.17,7.49l0 50.01c-39.05,-2.57 -68.54,-3.85 -88.49,-3.85 -16.24,0 -28.5,2.5 -36.76,7.48 -8.27,4.99 -12.4,14.18 -12.4,27.58l0 8.54c0,10.83 3.07,18.74 9.19,23.73 6.13,4.98 15.46,7.48 28,7.48l31.2 0c27.36,0 48.24,7.48 62.63,22.44 14.39,14.96 21.59,34.55 21.59,58.78l0 17.95c0,23.94 -4.42,42.53 -13.26,55.78 -8.83,13.25 -21.23,22.38 -37.19,27.36 -15.96,4.99 -35.76,7.48 -59.41,7.48z"/>
  <path id="2" class="fil1" d="M440.17 485.91c11.97,0 20.02,-3.63 24.16,-10.9 4.13,-7.26 6.19,-19.59 6.19,-36.97l0 -95.32c0,-11.12 3.78,-20.31 11.33,-27.57 7.55,-7.27 17.74,-12.04 30.56,-14.33 -28.21,-2.27 -42.31,-16.67 -42.31,-43.17l0 -69.68c0,-14.53 -0.86,-25.57 -2.57,-33.13 -1.71,-7.54 -4.7,-12.82 -8.97,-15.81 -4.28,-2.99 -10.41,-4.49 -18.39,-4.49l0 -50.87c62.41,0 93.62,26.51 93.62,79.51l0 83.78c0,14.82 9.68,23.09 29.06,24.8l0 58.56c-8.55,-0.57 -15.46,1.42 -20.73,5.99 -5.27,4.55 -7.9,10.82 -7.9,18.8l0 104.73c0,25.07 -6.99,43.6 -20.95,55.57 -13.97,11.97 -38.33,17.95 -73.1,17.95l0 -47.45z"/>
 </g>
</svg>
