<?xml version="1.0" encoding="UTF-8" standalone="no"?>
<!-- Created with Inkscape (http://www.inkscape.org/) -->

<svg
   width="139.99998"
   height="140"
   viewBox="0 0 37.041662 37.041666"
   version="1.1"
   id="svg13574"
   inkscape:version="1.2.2 (b0a8486541, 2022-12-01, custom)"
   sodipodi:docname="card.svg"
   inkscape:dataloss="true"
   xmlns:inkscape="http://www.inkscape.org/namespaces/inkscape"
   xmlns:sodipodi="http://sodipodi.sourceforge.net/DTD/sodipodi-0.dtd"
   xmlns="http://www.w3.org/2000/svg"
   xmlns:svg="http://www.w3.org/2000/svg">
  <sodipodi:namedview
     id="namedview13576"
     pagecolor="#ffffff"
     bordercolor="#000000"
     borderopacity="0.25"
     inkscape:showpageshadow="2"
     inkscape:pageopacity="0.0"
     inkscape:pagecheckerboard="0"
     inkscape:deskcolor="#d1d1d1"
     inkscape:document-units="px"
     showgrid="false"
     inkscape:zoom="2.3304714"
     inkscape:cx="335.98352"
     inkscape:cy="260.46232"
     inkscape:window-width="1920"
     inkscape:window-height="1163"
     inkscape:window-x="0"
     inkscape:window-y="0"
     inkscape:window-maximized="1"
     inkscape:current-layer="layer1" />
  <defs
     id="defs13571" />
  <g
     inkscape:label="Ebene 1"
     inkscape:groupmode="layer"
     id="layer1"
     transform="translate(-26.458332,-68.791665)">
    <g
       id="g20224"
       transform="matrix(0.99924621,0,0,0.99924621,-65.683114,1.0147814)"
       inkscape:export-filename="../755a70a8/g20224.svg"
       inkscape:export-xdpi="96"
       inkscape:export-ydpi="96">
      <rect
         class="fil0 str0"
         x="92.88662"
         y="68.503677"
         width="35.718281"
         height="35.718281"
         id="rect19321"
         style="clip-rule:evenodd;fill:#005e8e;fill-rule:evenodd;stroke:#9d9e9e;stroke-width:1.35133;stroke-miterlimit:22.9256;stroke-dasharray:none;stroke-opacity:0.98889;image-rendering:optimizeQuality;shape-rendering:geometricPrecision;text-rendering:geometricPrecision" />
      <path
         class="fil1"
         d="m 102.69663,100.4625 c -2.1518,0 -3.660416,-0.37019 -4.524603,-1.111189 -0.864187,-0.740996 -1.29628,-1.888087 -1.29628,-3.440033 v -6.483259 c 0,-0.493998 -0.163428,-0.88214 -0.489665,-1.163805 -0.326856,-0.282904 -0.754616,-0.406094 -1.28328,-0.370808 v -3.625128 c 1.19909,-0.105857 1.798945,-0.617807 1.798945,-1.535232 v -5.18636 c 0,-3.280939 1.932039,-4.922028 5.794883,-4.922028 v 3.149083 c -0.49338,0 -0.86852,0.09719 -1.12419,0.290951 -0.25566,0.19438 -0.44076,0.52495 -0.5559,0.992329 -0.11452,0.467998 -0.17148,1.142758 -0.17148,2.024278 v 4.313506 c 0,1.64047 -0.873469,2.531894 -2.619795,2.672418 0.793616,0.141761 1.424423,0.437046 1.891805,0.887091 0.46738,0.449427 0.70137,1.01833 0.70137,1.706708 v 5.900738 c 0,1.0759 0.12753,1.839183 0.38381,2.288609 0.25567,0.450046 0.754,0.674759 1.49438,0.674759 z"
         id="path19323"
         style="clip-rule:evenodd;fill:#fefefe;fill-rule:nonzero;stroke-width:0.0619045;image-rendering:optimizeQuality;shape-rendering:geometricPrecision;text-rendering:geometricPrecision" />
      <path
         id="1"
         class="fil1"
         d="m 110.6885,95.064424 c -1.00595,0 -2.08185,-0.0619 -3.22832,-0.185094 -1.14709,-0.123809 -2.11713,-0.282285 -2.91075,-0.476665 V 91.30682 c 1.5699,0.158476 3.55456,0.238333 5.95398,0.238333 1.0759,0 1.88746,-0.145476 2.43408,-0.437046 0.54724,-0.290951 0.82024,-0.806616 0.82024,-1.547613 v -0.714378 c 0,-0.581902 -0.1721,-1.027615 -0.51567,-1.336518 -0.34419,-0.308904 -0.83385,-0.463046 -1.46899,-0.463046 h -1.66709 c -1.94009,0 -3.39113,-0.423427 -4.35251,-1.27028 -0.96137,-0.846235 -1.44237,-2.231658 -1.44237,-4.154412 v -0.952711 c 0,-3.66908 2.10785,-5.50393 6.32416,-5.50393 0.988,0 2.01128,0.06624 3.06985,0.198095 1.05856,0.133095 2.01066,0.287237 2.85813,0.463665 v 3.095844 c -2.41737,-0.159094 -4.24294,-0.238332 -5.47793,-0.238332 -1.00533,0 -1.76428,0.154761 -2.27561,0.463046 -0.51195,0.308903 -0.76762,0.877806 -0.76762,1.707326 v 0.528664 c 0,0.670426 0.19005,1.160091 0.5689,1.468994 0.37948,0.308285 0.95705,0.463046 1.73333,0.463046 h 1.93142 c 1.69371,0 2.98628,0.463046 3.87708,1.389137 0.89081,0.926092 1.33652,2.138801 1.33652,3.638748 v 1.111185 c 0,1.481994 -0.27362,2.632799 -0.82085,3.453034 -0.54662,0.820235 -1.31424,1.385423 -2.30223,1.693707 -0.988,0.308904 -2.21371,0.463046 -3.67775,0.463046 z"
         style="clip-rule:evenodd;fill:#fefefe;fill-rule:nonzero;stroke-width:0.0619045;image-rendering:optimizeQuality;shape-rendering:geometricPrecision;text-rendering:geometricPrecision" />
      <path
         id="2"
         class="fil1"
         d="m 119.07656,97.525128 c 0.741,0 1.23933,-0.224713 1.49561,-0.674759 0.25567,-0.449426 0.38319,-1.212709 0.38319,-2.288609 v -5.900738 c 0,-0.688378 0.234,-1.257281 0.70138,-1.706708 0.46738,-0.450045 1.09819,-0.74533 1.8918,-0.887091 -1.74632,-0.140524 -2.61918,-1.031948 -2.61918,-2.672418 v -4.313506 c 0,-0.899473 -0.0532,-1.582899 -0.15909,-2.050897 -0.10586,-0.46676 -0.29095,-0.793615 -0.55528,-0.97871 -0.26496,-0.185094 -0.64443,-0.277951 -1.13843,-0.277951 v -3.149083 c 3.86346,0 5.7955,1.641089 5.7955,4.922028 v 5.18636 c 0,0.917425 0.59924,1.429375 1.79895,1.535232 v 3.625128 c -0.52929,-0.03529 -0.95705,0.0879 -1.28328,0.370808 -0.32624,0.281665 -0.48905,0.669807 -0.48905,1.163805 v 6.483259 c 0,1.551946 -0.43271,2.699037 -1.2969,3.440033 -0.86481,0.740999 -2.3728,1.111189 -4.52522,1.111189 z"
         style="clip-rule:evenodd;fill:#fefefe;fill-rule:nonzero;stroke-width:0.0619045;image-rendering:optimizeQuality;shape-rendering:geometricPrecision;text-rendering:geometricPrecision" />
    </g>
  </g>
</svg>
