<?xml version="1.0" encoding="UTF-8"?>
<svg version="1.1" viewBox="0 0 576 576" xmlns="http://www.w3.org/2000/svg">
   <path d="m512 112c8.8 0 16 7.2 16 16v320c0 8.8-7.2 16-16 16h-448c-8.8 0-16-7.2-16-16v-320c0-8.8 7.2-16 16-16zm-448-48c-35.3 0-64 28.7-64 64v320c0 35.3 28.7 64 64 64h448c35.3 0 64-28.7 64-64v-320c0-35.3-28.7-64-64-64zm144 224a64 64 0 1 0 0-128 64 64 0 1 0 0 128zm-32 32c-44.2 0-80 35.8-80 80 0 8.8 7.2 16 16 16h192c8.8 0 16-7.2 16-16 0-44.2-35.8-80-80-80zm200-144c-13.3 0-24 10.7-24 24s10.7 24 24 24h80c13.3 0 24-10.7 24-24s-10.7-24-24-24zm0 96c-13.3 0-24 10.7-24 24s10.7 24 24 24h80c13.3 0 24-10.7 24-24s-10.7-24-24-24z" fill="#1e3050"/>
</svg>
