<?xml version="1.0" encoding="UTF-8"?>
<svg version="1.1" viewBox="0 0 576 576" xmlns="http://www.w3.org/2000/svg">
   <path d="m408 155.78c0 54.6-73.1 151.9-105.2 192-7.7 9.6-22 9.6-29.6 0-32.1-40.1-105.2-137.4-105.2-192 0-66.3 53.7-120 120-120s120 53.7 120 120zm8 80.4c3.5-6.9 6.7-13.8 9.6-20.6 0.5-1.2 1-2.5 1.5-3.7l116-46.4c15.8-6.3 32.9 5.3 32.9 22.3v270.8c0 9.8-6 18.6-15.1 22.3l-144.9 57.9zm-278.4-62.1c2.4 14.1 7.2 28.3 12.8 41.5 2.9 6.8 6.1 13.7 9.6 20.6v251.4l-127.1 50.9c-15.8 6.3-32.9-5.3-32.9-22.3v-270.8c0-9.8 6-18.6 15.1-22.3l122.6-49zm190.2 193.7c13.9-17.4 35.7-45.7 56.2-77v249.3l-192-54.9v-194.4c20.5 31.3 42.3 59.6 56.2 77 20.5 25.6 59.1 25.6 79.6 0zm-39.8-180a40 40 0 1 0 0-80 40 40 0 1 0 0 80z" fill="#1e3050"/>
</svg>
