<?xml version="1.0" encoding="UTF-8"?>
<svg version="1.1" viewBox="0 0 576 576" xmlns="http://www.w3.org/2000/svg">
   <path d="m565.6 68.2c6.5 4.5 10.4 11.9 10.4 19.8v336c0 10-6.2 18.9-15.5 22.4l-168 64c-5.2 2-10.9 2.1-16.1 0.3l-183.9-61.2-160 61c-7.4 2.8-15.7 1.8-22.2-2.7s-10.3-11.9-10.3-19.8v-336c0-10 6.1-18.9 15.5-22.4l168-64c5.2-2 10.9-2.1 16.1-0.3l183.9 61.2 160-61c7.4-2.8 15.7-1.8 22.2 2.7zm-517.6 100.3v284.7l120-45.7v-284.7zm312 286.2v-285.4l-144-48v285.4zm48-1.5 120-45.7v-284.7l-120 45.7z" fill="#1e3050"/>
</svg>
